<svg width="256" height="256" viewBox="0 0 256 256" fill="none" xmlns="http://www.w3.org/2000/svg">
<path d="M128 255.998C198.692 255.998 256 227.983 256 193.423C256 158.864 198.692 130.848 128 130.848C57.3076 130.848 0 158.864 0 193.423C0 227.983 57.3076 255.998 128 255.998Z" fill="#F5F5F5"/>
<path d="M181.263 232.879L85.7162 185.403C84.8756 184.986 84.1775 184.386 83.6921 183.663C83.2067 182.941 82.9512 182.121 82.9512 181.286C82.9512 180.451 83.2067 179.631 83.6921 178.908C84.1775 178.185 84.8756 177.586 85.7162 177.169L95.1416 172.054C96.7686 171.247 98.6133 170.823 100.491 170.823C102.368 170.823 104.213 171.247 105.84 172.054L201.4 219.536C202.241 219.953 202.939 220.552 203.424 221.275C203.91 221.998 204.165 222.818 204.165 223.653C204.165 224.488 203.91 225.308 203.424 226.03C202.939 226.753 202.241 227.353 201.4 227.77L191.975 232.879C190.347 233.69 188.5 234.117 186.619 234.117C184.738 234.117 182.891 233.69 181.263 232.879Z" fill="#E0E0E0"/>
<path d="M35.9866 189.597C47.438 189.597 56.7212 185.01 56.7212 179.351C56.7212 173.692 47.438 169.104 35.9866 169.104C24.5352 169.104 15.252 173.692 15.252 179.351C15.252 185.01 24.5352 189.597 35.9866 189.597Z" fill="#E6E6E6"/>
<path d="M215.146 191.943L224.24 196.443C224.24 196.443 219.596 183.882 222.071 171.221C223.006 166.436 225.013 164.06 225.715 162.78C226.416 161.5 231.853 153.59 227.014 149.968C222.174 146.345 210.917 153.629 211.528 173.122C211.805 179.502 213.021 185.826 215.146 191.943Z" fill="#2790C3"/>
<path opacity="0.5" d="M215.146 191.943L224.24 196.443C224.24 196.443 219.596 183.882 222.071 171.221C223.006 166.436 225.013 164.06 225.715 162.78C226.416 161.5 231.853 153.59 227.014 149.968C222.174 146.345 210.917 153.629 211.528 173.122C211.805 179.502 213.021 185.826 215.146 191.943Z" fill="black"/>
<path d="M219.373 194.314C219.307 194.315 219.242 194.299 219.187 194.267C219.133 194.235 219.091 194.189 219.068 194.135C219.035 194.052 215.56 185.879 215.671 172.742C215.781 159.606 223.803 152.473 223.881 152.406C223.911 152.379 223.947 152.359 223.987 152.344C224.027 152.33 224.069 152.323 224.112 152.323C224.155 152.323 224.197 152.33 224.237 152.344C224.276 152.359 224.312 152.379 224.342 152.406C224.373 152.432 224.397 152.463 224.414 152.497C224.43 152.531 224.439 152.567 224.439 152.604C224.439 152.641 224.43 152.678 224.414 152.712C224.397 152.746 224.373 152.777 224.342 152.803C224.265 152.87 216.431 159.79 216.32 172.748C216.21 185.706 219.639 193.867 219.678 193.945C219.708 194.015 219.704 194.092 219.667 194.159C219.631 194.226 219.565 194.278 219.484 194.303C219.448 194.313 219.41 194.316 219.373 194.314Z" fill="white"/>
<path d="M218.941 193.867L231.374 200.016C232.67 200.675 234.206 200.889 235.677 200.617C237.149 200.344 238.446 199.605 239.312 198.545C240.135 197.444 240.482 196.128 240.293 194.828C239.695 189.272 236.889 187.991 240.325 185.515C243.762 183.039 244.658 182.865 244.463 180.484C244.268 178.103 242.378 177.063 241.482 176.124C240.585 175.185 238.104 173.217 239.793 170.31C241.482 167.403 243.788 164.591 240.293 163.306C238.208 162.534 234.733 163.563 232.446 165.698C230.16 167.834 228.276 169.371 226.087 169.885C223.898 170.4 219.338 170.483 219.532 173.731C219.727 176.979 220.728 178.091 219.831 179.539C218.142 182.245 210.796 183.782 218.941 193.867Z" fill="#2790C3"/>
<path d="M225.086 197.176C225.005 197.173 224.928 197.146 224.868 197.099C224.809 197.052 224.771 196.988 224.762 196.918C224.762 196.728 222.852 177.543 238.182 164.776C238.245 164.731 238.326 164.708 238.408 164.712C238.489 164.716 238.566 164.747 238.623 164.798C238.68 164.849 238.712 164.916 238.713 164.987C238.715 165.057 238.685 165.126 238.63 165.178C223.521 177.761 225.392 196.678 225.411 196.868C225.418 196.941 225.392 197.014 225.337 197.071C225.282 197.127 225.204 197.163 225.119 197.17L225.086 197.176Z" fill="white"/>
<path d="M227.546 180.663C227.465 180.664 227.386 180.637 227.325 180.59C227.265 180.542 227.228 180.477 227.222 180.406C227.086 178.92 226.599 177.472 225.792 176.153C224.984 174.833 223.873 173.669 222.525 172.731C222.49 172.71 222.46 172.683 222.437 172.652C222.414 172.621 222.399 172.586 222.391 172.55C222.384 172.513 222.385 172.476 222.395 172.44C222.404 172.404 222.422 172.37 222.447 172.34C222.471 172.31 222.502 172.284 222.538 172.265C222.573 172.245 222.613 172.231 222.655 172.225C222.697 172.219 222.739 172.22 222.781 172.228C222.822 172.236 222.861 172.252 222.895 172.273C224.331 173.253 225.515 174.479 226.372 175.873C227.228 177.267 227.739 178.8 227.871 180.373C227.878 180.448 227.851 180.522 227.795 180.579C227.739 180.637 227.659 180.673 227.572 180.68L227.546 180.663Z" fill="white"/>
<path d="M226.489 183.955C226.411 183.955 226.335 183.932 226.275 183.888C226.21 183.838 226.171 183.769 226.165 183.695C226.159 183.621 226.187 183.548 226.242 183.491C226.398 183.334 230.237 179.69 239.234 180.657C239.319 180.666 239.397 180.705 239.449 180.764C239.501 180.822 239.524 180.896 239.513 180.97C239.502 181.043 239.458 181.11 239.39 181.156C239.322 181.202 239.236 181.224 239.15 181.216C230.51 180.282 226.762 183.826 226.723 183.86C226.694 183.888 226.658 183.911 226.617 183.928C226.577 183.944 226.534 183.953 226.489 183.955Z" fill="white"/>
<path d="M178.357 227.206L94.3274 185.454C88.3967 182.508 83.5898 174.604 83.5898 167.8V12.956C83.5898 6.15294 88.3967 3.02811 94.3274 5.97406L178.357 47.7262C184.288 50.6721 189.095 58.5764 189.095 65.3795V220.224C189.095 227.021 184.288 230.152 178.357 227.206Z" fill="#455A64"/>
<path d="M188.034 42.8569L103.998 1.10485C101.465 -0.15291 99.1392 -0.298251 97.3009 0.473176C97.0759 0.570166 96.8588 0.680364 96.6514 0.802989L87.2324 5.5154C89.1292 4.53714 91.6106 4.60981 94.3323 5.96261L178.362 47.7147C184.293 50.6607 189.1 58.565 189.1 65.3681V220.213C189.1 223.812 187.755 226.362 185.612 227.569L194.907 222.913C197.278 221.828 198.805 219.173 198.805 215.366V60.5215C198.805 53.7072 193.965 45.8029 188.034 42.8569Z" fill="#37474F"/>
<path d="M189.094 65.3678V220.212C189.094 223.812 187.749 226.361 185.605 227.569L194.907 222.912C197.278 221.828 198.805 219.172 198.805 215.366V60.5212L189.126 65.3566L189.094 65.3678Z" fill="#263238"/>
<path d="M198.773 72.5356L189.094 77.3431V81.0996L198.773 76.2866V72.5356Z" fill="#37474F"/>
<path d="M194.532 97.5157C193.668 97.9462 192.967 97.4878 192.967 96.4983V88.4207C192.976 87.9158 193.122 87.4196 193.394 86.9721C193.665 86.5246 194.055 86.1381 194.532 85.8437C195.396 85.4133 196.098 85.8437 196.098 86.8611V94.9387C196.089 95.4437 195.943 95.9398 195.671 96.3874C195.399 96.8349 195.009 97.2214 194.532 97.5157Z" fill="#37474F"/>
<path d="M192.96 96.5201V88.4201C192.969 87.9152 193.115 87.419 193.387 86.9715C193.658 86.5239 194.048 86.1375 194.525 85.8431C194.668 85.7573 194.834 85.705 195.007 85.6913C195.18 85.6776 195.354 85.7029 195.513 85.7648L194.337 85.245C194.176 85.1784 193.998 85.1495 193.82 85.1613C193.642 85.173 193.471 85.2251 193.324 85.312C192.846 85.6064 192.456 85.9928 192.183 86.4402C191.91 86.8877 191.762 87.3838 191.752 87.889V95.9611C191.727 96.165 191.763 96.3709 191.856 96.5596C191.95 96.7482 192.097 96.9135 192.284 97.04L193.512 97.599C193.316 97.4778 193.162 97.3139 193.065 97.1242C192.968 96.9345 192.932 96.7259 192.96 96.5201Z" fill="#455A64"/>
<path d="M194.532 117.065C193.668 117.496 192.967 117.065 192.967 116.048V107.97C192.976 107.466 193.122 106.97 193.394 106.522C193.666 106.075 194.056 105.688 194.532 105.393C195.396 104.963 196.098 105.393 196.098 106.416V114.488C196.09 114.994 195.944 115.49 195.672 115.938C195.4 116.385 195.01 116.772 194.532 117.065Z" fill="#37474F"/>
<path d="M192.96 116.046V107.968C192.969 107.463 193.116 106.967 193.388 106.52C193.659 106.072 194.049 105.686 194.526 105.391C194.669 105.307 194.835 105.256 195.007 105.242C195.18 105.228 195.354 105.253 195.513 105.313L194.337 104.787C194.177 104.718 193.998 104.687 193.82 104.699C193.641 104.711 193.47 104.765 193.324 104.855C192.845 105.148 192.454 105.534 192.181 105.982C191.908 106.429 191.761 106.926 191.752 107.432V115.526C191.727 115.73 191.763 115.936 191.856 116.125C191.949 116.314 192.097 116.479 192.285 116.605L193.512 117.164C193.309 117.04 193.149 116.87 193.052 116.672C192.954 116.475 192.923 116.258 192.96 116.046Z" fill="#455A64"/>
<path d="M175.423 52.0689L92.8484 11.0267C92.5038 10.8561 92.1133 10.766 91.7157 10.7654C91.3182 10.7647 90.9273 10.8536 90.5819 11.0231C90.2366 11.1926 89.9487 11.4369 89.7469 11.7317C89.5451 12.0265 89.4365 12.3616 89.4316 12.7037V167.8C89.4316 172.976 93.6994 179.332 98.909 181.92L179.457 221.962C179.839 222.151 180.272 222.25 180.713 222.25C181.154 222.25 181.587 222.15 181.968 221.96C182.35 221.77 182.667 221.498 182.887 221.169C183.108 220.841 183.224 220.468 183.225 220.089V63.713C183.257 59.4422 179.736 54.2043 175.423 52.0689Z" fill="#2790C3"/>
<path opacity="0.9" d="M175.423 52.0689L92.8484 11.0267C92.5038 10.8561 92.1133 10.766 91.7157 10.7654C91.3182 10.7647 90.9273 10.8536 90.5819 11.0231C90.2366 11.1926 89.9487 11.4369 89.7469 11.7317C89.5451 12.0265 89.4365 12.3616 89.4316 12.7037V167.8C89.4316 172.976 93.6994 179.332 98.909 181.92L179.457 221.962C179.839 222.151 180.272 222.25 180.713 222.25C181.154 222.25 181.587 222.15 181.968 221.96C182.35 221.77 182.667 221.498 182.887 221.169C183.108 220.841 183.224 220.468 183.225 220.089V63.713C183.257 59.4422 179.736 54.2043 175.423 52.0689Z" fill="white"/>
<path d="M117.543 21.7441L118.823 26.3783L146.196 39.9621L150.925 37.7932L117.543 21.7441Z" fill="#455A64"/>
<path d="M125.591 26.2196C125.591 26.991 124.942 27.2985 124.188 26.9184C123.784 26.6872 123.448 26.3777 123.208 26.0146C122.967 25.6515 122.829 25.245 122.805 24.8277C122.805 24.0618 123.454 23.7488 124.208 24.1345C124.612 24.3644 124.948 24.6729 125.188 25.0351C125.429 25.3973 125.567 25.803 125.591 26.2196Z" fill="#263238"/>
<path d="M144.034 36.0307C143.884 36.0297 143.737 35.9971 143.605 35.9357L129.626 29.2277C129.429 29.1279 129.285 28.9657 129.224 28.7757C129.164 28.5857 129.192 28.3829 129.304 28.2107C129.415 28.0384 129.6 27.9104 129.819 27.854C130.038 27.7975 130.274 27.817 130.477 27.9084L144.463 34.6165C144.633 34.6978 144.766 34.8254 144.843 34.9793C144.919 35.1332 144.934 35.3046 144.885 35.4666C144.836 35.6285 144.726 35.7719 144.572 35.874C144.418 35.9761 144.228 36.0313 144.034 36.0307Z" fill="#263238"/>
<path d="M106.747 43.3031C105.896 42.8782 105.279 43.2472 105.279 44.1807C105.279 44.6475 105.413 45.1072 105.669 45.5187C105.925 45.9302 106.296 46.281 106.747 46.5397C106.989 46.666 107.266 46.7328 107.549 46.7328C107.832 46.7328 108.11 46.666 108.352 46.5397L109.709 48.6527C109.232 48.8795 108.69 48.9876 108.145 48.9649C107.6 48.9422 107.074 48.7896 106.624 48.5242C105.521 47.9435 104.601 47.1378 103.946 46.1783C103.291 45.2189 102.921 44.1354 102.869 43.0236C102.869 40.9497 104.487 40.2285 106.715 41.3465C107.973 42.0438 109.004 43.0058 109.709 44.1416L108.352 45.0695C108.017 44.3644 107.461 43.7529 106.747 43.3031Z" fill="#2790C3"/>
<path d="M117.522 50.3097C117.522 52.4004 115.878 53.1047 113.624 51.9867C112.49 51.4033 111.54 50.5877 110.86 49.6125C110.18 48.6373 109.791 47.5326 109.727 46.3967C109.727 44.306 111.37 43.6016 113.624 44.7196C114.761 45.3004 115.713 46.1153 116.393 47.0911C117.073 48.0669 117.461 49.1729 117.522 50.3097ZM112.137 47.6432C112.148 48.1232 112.292 48.594 112.556 49.0168C112.82 49.4395 113.197 49.8022 113.657 50.0749C114.462 50.4774 115.112 50.0749 115.112 49.1246C115.109 48.6555 114.976 48.1937 114.723 47.7782C114.47 47.3628 114.104 47.0059 113.657 46.7377C112.838 46.3296 112.137 46.6762 112.137 47.6432Z" fill="#2790C3"/>
<path d="M120.142 48.0889L122.948 53.1199V49.4976L125.072 50.5541V57.6031L123.124 56.6305L120.33 51.6442V55.2441L118.193 54.182V47.1162L120.142 48.0889Z" fill="#2790C3"/>
<path d="M132.016 53.9872V55.8319L129.99 54.8257V60.0356L127.645 58.8673V53.6574L125.631 52.6568V50.8176L132.016 53.9872Z" fill="#2790C3"/>
<path d="M136.589 62.3169L133.925 60.992L133.562 61.8082L131.158 60.6119L134.153 55.0498L136.563 56.2461L139.447 64.7318L136.946 63.4908L136.589 62.3169ZM136.011 60.3604L135.283 57.951L134.536 59.6281L136.011 60.3604Z" fill="#2790C3"/>
<path d="M143.169 61.4002C142.318 60.981 141.701 61.3443 141.701 62.2835C141.702 62.7501 141.837 63.2094 142.093 63.6207C142.349 64.0321 142.718 64.383 143.169 64.6425C143.413 64.7675 143.691 64.8335 143.974 64.8335C144.258 64.8335 144.536 64.7675 144.78 64.6425L146.138 66.7555C145.658 66.9797 145.116 67.0863 144.571 67.0636C144.025 67.0409 143.498 66.8899 143.046 66.6269C141.942 66.0457 141.022 65.2391 140.367 64.2786C139.712 63.3182 139.342 62.2335 139.291 61.1207C139.291 59.0468 140.915 58.3257 143.137 59.4437C144.393 60.1444 145.425 61.1055 146.138 62.2387L144.78 63.1611C144.438 62.4597 143.881 61.8511 143.169 61.4002Z" fill="#2790C3"/>
<path d="M152.544 64.1891V66.0283L150.517 65.0221V70.2488L148.172 69.0804V63.8705L146.158 62.8699V61.0308L152.544 64.1891Z" fill="#2790C3"/>
<path d="M159.476 72.8424C160.054 73.1275 160.496 72.9039 160.496 72.2051V68.1411L162.847 69.3039V73.3678C162.847 75.2405 161.548 75.7995 159.469 74.7765C158.468 74.2979 157.626 73.6061 157.025 72.7673C156.423 71.9284 156.082 70.9707 156.033 69.9858V65.9219L158.385 67.0902V71.1542C158.394 71.4906 158.498 71.8202 158.688 72.1143C158.878 72.4084 159.149 72.6583 159.476 72.8424Z" fill="#2790C3"/>
<path d="M166.634 72.865C166.368 72.7364 166.199 72.7308 166.199 72.9432C166.199 73.8264 169.869 75.101 169.869 77.6556C169.869 79.2208 168.485 79.2264 166.887 78.4326C165.483 77.692 164.272 76.7077 163.334 75.5426L164.204 74.2233C164.919 75.175 165.835 76.002 166.907 76.6606C167.251 76.8339 167.472 76.8339 167.472 76.5823C167.472 75.6656 163.795 74.4469 163.795 71.9705C163.795 70.5619 164.99 70.2935 166.835 71.1879C168.024 71.8065 169.07 72.6081 169.921 73.5525L169.07 74.9053C168.367 74.135 167.548 73.4488 166.634 72.865Z" fill="#2790C3"/>
<path d="M94.9313 78.0394C97.567 75.2537 98.8937 71.7191 98.6497 68.1329C98.4058 64.5467 96.6088 61.1694 93.6135 58.6674C90.6181 56.1654 86.6418 54.7203 82.4692 54.6172C78.2965 54.5142 74.2305 55.7607 71.0733 58.1108C67.9162 60.4609 65.8972 63.744 65.4146 67.3122C64.9321 70.8804 66.0211 74.4747 68.4668 77.3859C70.9125 80.2971 74.5373 82.3138 78.6259 83.0381C82.7146 83.7624 86.9702 83.1417 90.5532 81.2984L98.6859 84.3394L94.9313 78.0394Z" fill="#2790C3"/>
<path opacity="0.4" d="M94.9313 78.0394C97.567 75.2537 98.8937 71.7191 98.6497 68.1329C98.4058 64.5467 96.6088 61.1694 93.6135 58.6674C90.6181 56.1654 86.6418 54.7203 82.4692 54.6172C78.2965 54.5142 74.2305 55.7607 71.0733 58.1108C67.9162 60.4609 65.8972 63.744 65.4146 67.3122C64.9321 70.8804 66.0211 74.4747 68.4668 77.3859C70.9125 80.2971 74.5373 82.3138 78.6259 83.0381C82.7146 83.7624 86.9702 83.1417 90.5532 81.2984L98.6859 84.3394L94.9313 78.0394Z" fill="black"/>
<path d="M75.8086 68.2011C75.8086 67.9831 75.6267 67.8601 75.2954 67.8601C74.527 67.9468 73.8093 68.238 73.2427 68.6931L72.3203 67.1502C73.2913 66.5215 74.4641 66.1661 75.6786 66.1328C77.2376 66.1328 78.4199 66.8372 78.4199 67.8881C78.4199 68.6372 77.7703 69.3583 76.9388 70.0794L75.7761 71.0688H78.5238V72.7123H72.6191V71.3651L75.2499 69.0229C75.5332 68.8072 75.7289 68.5193 75.8086 68.2011Z" fill="white"/>
<path d="M83.3309 66.2297L81.538 69.9303H82.2721V68.6838H84.5326V69.9303H85.3901V71.4564H84.5326V72.7142H82.2721V71.4564H79.0566V70.0701L81.0054 66.2297H83.3309Z" fill="white"/>
<path d="M92.3654 69.4881V72.7135H89.9489V70.0862C89.9629 70.0006 89.9553 69.9135 89.9268 69.8307C89.8983 69.7479 89.8494 69.6713 89.7835 69.6061C89.7176 69.5409 89.6362 69.4887 89.5449 69.4529C89.4535 69.4171 89.3543 69.3986 89.2539 69.3986C88.7797 69.3986 88.4809 69.7172 88.4809 70.2092V72.7135H86.0645V65.8601H88.4809V68.3812C88.6699 68.1241 88.9334 67.9137 89.2454 67.7706C89.5574 67.6275 89.9073 67.5567 90.2607 67.5651C90.5504 67.5587 90.8383 67.6049 91.1057 67.7008C91.3732 67.7967 91.6141 67.9401 91.8127 68.1216C92.0114 68.3031 92.1633 68.5186 92.2585 68.7541C92.3537 68.9895 92.3902 69.2396 92.3654 69.4881Z" fill="white"/>
<path d="M171.16 121.433V190.889C171.161 191.675 170.922 192.447 170.466 193.128C170.011 193.808 169.355 194.374 168.565 194.767C167.774 195.16 166.878 195.368 165.965 195.368C165.052 195.368 164.155 195.161 163.365 194.769L119.895 173.169L112.191 169.345C109.538 168.025 107.334 166.129 105.8 163.846C104.265 161.564 103.454 158.974 103.447 156.337V86.8751C103.446 86.0896 103.685 85.3175 104.141 84.6368C104.596 83.956 105.252 83.3906 106.042 82.9973C106.832 82.604 107.729 82.3968 108.642 82.3965C109.555 82.3962 110.452 82.6028 111.242 82.9956L162.429 108.425C165.083 109.743 167.287 111.639 168.82 113.922C170.352 116.206 171.159 118.796 171.16 121.433Z" fill="#2790C3"/>
<path opacity="0.5" d="M171.16 121.433V190.889C171.161 191.675 170.922 192.447 170.466 193.128C170.011 193.808 169.355 194.374 168.565 194.767C167.774 195.16 166.878 195.368 165.965 195.368C165.052 195.368 164.155 195.161 163.365 194.769L119.895 173.169L112.191 169.345C109.538 168.025 107.334 166.129 105.8 163.846C104.265 161.564 103.454 158.974 103.447 156.337V86.8751C103.446 86.0896 103.685 85.3175 104.141 84.6368C104.596 83.956 105.252 83.3906 106.042 82.9973C106.832 82.604 107.729 82.3968 108.642 82.3965C109.555 82.3962 110.452 82.6028 111.242 82.9956L162.429 108.425C165.083 109.743 167.287 111.639 168.82 113.922C170.352 116.206 171.159 118.796 171.16 121.433Z" fill="white"/>
<path d="M146.114 162.529C146.114 162.529 154.253 174.145 148.375 187.243L119.871 173.167L146.114 162.529Z" fill="#263238"/>
<path d="M159.097 110.341C159.713 106.036 156.157 102.116 151.154 101.586C146.152 101.056 141.597 104.116 140.981 108.421C140.365 112.726 143.921 116.646 148.923 117.176C153.926 117.706 158.481 114.646 159.097 110.341Z" fill="#263238"/>
<path d="M150.084 87.3498C150.084 87.3498 152.884 83.4368 153.741 83.7219C154.599 84.007 153.182 87.7355 153.182 87.7355C153.182 87.7355 157.418 88.4958 156.632 89.4126C155.846 90.3293 150.669 90.1113 150.669 90.1113L150.084 87.3498Z" fill="#263238"/>
<path d="M152.034 97.4318C150.086 110.032 137.744 110.032 137.744 110.032L111.89 100.238C111.89 100.238 109.941 98.7679 109.344 95.3915C109.115 94.0084 109.115 92.6044 109.344 91.2213C109.344 91.2213 109.344 91.1933 109.344 91.1822C110.169 85.8828 114.774 80.1865 124.804 78.4368C127.002 78.0549 129.239 77.8676 131.482 77.8778C132.566 77.8746 133.651 77.9212 134.729 78.0176C142.524 78.6772 147.987 81.8076 150.592 86.6766C151.178 87.7755 151.614 88.9292 151.891 90.1145C152.42 92.529 152.468 95.0033 152.034 97.4318Z" fill="#263238"/>
<path d="M89.9682 121.805C89.9682 121.805 80.7896 121.531 77.2559 129.229C77.2559 129.229 81.1533 131.493 86.2655 129.229C91.3778 126.965 89.9682 121.805 89.9682 121.805Z" fill="#2790C3"/>
<path opacity="0.5" d="M89.9682 121.805C89.9682 121.805 80.7896 121.531 77.2559 129.229C77.2559 129.229 81.1533 131.493 86.2655 129.229C91.3778 126.965 89.9682 121.805 89.9682 121.805Z" fill="black"/>
<path d="M89.7068 125.513C89.7068 125.513 87.1085 115.797 85.7379 115.68C84.3673 115.563 84.1009 118.643 84.2114 120.381L80.9635 114.366C80.8604 114.179 80.714 114.013 80.5332 113.876C80.3524 113.74 80.1411 113.637 79.9122 113.574C79.6834 113.51 79.4419 113.488 79.2026 113.508C78.9634 113.528 78.7314 113.59 78.521 113.69C75.2731 115.227 69.5763 119.9 81.5871 131.455L89.7068 125.513Z" fill="#945959"/>
<path d="M122.966 118.795L121.017 118.577C119.054 118.353 117.056 118.583 115.229 119.243C113.403 119.903 111.813 120.97 110.624 122.333L99.0291 135.615L89.935 121.808C89.935 121.808 88.8437 131.199 77.2227 129.232L89.7011 147.304C90.4908 148.448 91.59 149.411 92.9051 150.111C94.2202 150.811 95.7124 151.228 97.2546 151.325C98.7969 151.422 100.344 151.197 101.763 150.669C103.183 150.142 104.433 149.327 105.408 148.294L116.087 136.996L122.966 118.795Z" fill="#2790C3"/>
<path d="M147.713 149.79C145.115 155.458 144.829 156.565 146.414 159.399C147.518 161.492 148.388 163.671 149.012 165.906C149.012 165.906 136.969 177.522 119.827 173.173L112.123 169.349C110.521 168.554 109.077 167.542 107.848 166.353L110.193 151.305C110.311 150.512 110.218 149.708 109.921 148.951L107.459 142.741C106.257 139.707 106.079 136.443 106.943 133.326C107.807 130.209 109.68 127.366 112.344 125.126L120.619 118.167L142.354 120.559L145.602 121.359C147.728 121.888 149.561 123.06 150.764 124.659C151.967 126.257 152.459 128.176 152.15 130.062C151.085 136.659 149.344 146.229 147.713 149.79Z" fill="#2790C3"/>
<path opacity="0.5" d="M147.713 149.79C145.115 155.458 144.829 156.565 146.414 159.399C147.518 161.492 148.388 163.671 149.012 165.906C149.012 165.906 136.969 177.522 119.827 173.173L112.123 169.349C110.521 168.554 109.077 167.542 107.848 166.353L110.193 151.305C110.311 150.512 110.218 149.708 109.921 148.951L107.459 142.741C106.257 139.707 106.079 136.443 106.943 133.326C107.807 130.209 109.68 127.366 112.344 125.126L120.619 118.167L142.354 120.559L145.602 121.359C147.728 121.888 149.561 123.06 150.764 124.659C151.967 126.257 152.459 128.176 152.15 130.062C151.085 136.659 149.344 146.229 147.713 149.79Z" fill="black"/>
<path d="M134.607 132.858L130.254 129.666C129.793 129.327 129.238 129.097 128.642 128.999C128.046 128.901 127.431 128.938 126.857 129.107L121.595 130.667L120.887 128.129C120.777 127.734 120.575 127.363 120.293 127.037C120.011 126.711 119.655 126.438 119.247 126.234C118.839 126.03 118.388 125.899 117.919 125.849C117.451 125.799 116.976 125.831 116.522 125.943L114.242 126.502L118.101 120.141C119.361 118.069 121.301 116.362 123.681 115.233L125.194 114.517L137.699 115.076C137.699 115.076 142.356 116.753 142.356 120.527L134.607 132.825" fill="#2790C3"/>
<path d="M137.75 119.843L125.213 128.25V101.479H137.75V119.843Z" fill="#945959"/>
<path d="M125.407 117.636L121.594 130.689L137.697 119.844L125.407 117.636Z" fill="#945959"/>
<path d="M125.212 115.695C127.999 114.804 130.548 113.435 132.702 111.671C134.856 109.906 136.571 107.784 137.742 105.432V101.479H125.205L125.212 115.695Z" fill="#703838"/>
<path d="M127.916 81.6428C123.161 81.6428 113.054 83.9236 111.885 94.6341C110.715 105.345 111.846 113.64 118.263 114.445C124.681 115.25 139.596 111.242 141.596 97.3788C143.597 83.5155 132.548 81.6428 127.916 81.6428Z" fill="#945959"/>
<path d="M120.433 99.1667V105.478L116.133 104.343L120.433 99.1667Z" fill="#703838"/>
<path d="M125.215 101.541C126.04 101.541 126.709 100.966 126.709 100.256C126.709 99.5456 126.04 98.97 125.215 98.97C124.39 98.97 123.721 99.5456 123.721 100.256C123.721 100.966 124.39 101.541 125.215 101.541Z" fill="#263238"/>
<path d="M116.875 99.3631C116.873 99.6171 116.785 99.8652 116.62 100.076C116.455 100.287 116.221 100.45 115.948 100.547C115.675 100.643 115.375 100.668 115.085 100.618C114.796 100.568 114.53 100.445 114.322 100.265C114.114 100.085 113.972 99.8555 113.915 99.6063C113.858 99.357 113.888 99.0988 114.001 98.8642C114.114 98.6296 114.306 98.4291 114.551 98.2881C114.797 98.147 115.086 98.0718 115.381 98.0718C115.577 98.0718 115.772 98.1052 115.954 98.1702C116.136 98.2351 116.301 98.3303 116.439 98.4503C116.578 98.5703 116.688 98.7127 116.763 98.8693C116.838 99.026 116.876 99.1938 116.875 99.3631Z" fill="#263238"/>
<path d="M113.553 96.6789L116.477 95.1864C116.477 95.1864 115.359 94.1857 114.242 94.7839C113.125 95.382 113.553 96.6789 113.553 96.6789Z" fill="#263238"/>
<path d="M118.41 108.038C119.834 108.127 121.251 107.8 122.431 107.11C122.431 107.11 122.71 108.938 120.931 109.284C119.151 109.631 118.41 108.038 118.41 108.038Z" fill="#703838"/>
<path d="M115.859 85.2862C115.859 85.2862 117.646 100.072 141.011 100.536C141.011 100.536 148.072 85.8397 134.119 81.0658C120.166 76.2919 115.859 85.2862 115.859 85.2862Z" fill="#263238"/>
<path d="M147.891 98.3214L145.02 96.8903C143.929 96.3313 142.422 96.4096 140.752 97.2369C137.439 98.8804 134.75 102.888 134.75 106.181C134.75 107.83 135.4 108.976 136.517 109.535L139.336 110.933L139.498 111.011L139.596 111.061C140.661 111.508 142.084 111.402 143.649 110.625C146.962 108.948 149.651 104.974 149.651 101.681C149.632 100.015 148.963 98.8636 147.891 98.3214Z" fill="#2790C3"/>
<path d="M147.868 106.744C150.21 103.252 150.21 99.4779 147.868 98.314C145.525 97.1501 141.727 99.0372 139.384 102.529C137.042 106.021 137.042 109.795 139.384 110.959C141.727 112.123 145.525 110.236 147.868 106.744Z" fill="#2790C3"/>
<path opacity="0.5" d="M147.868 106.744C150.21 103.252 150.21 99.4779 147.868 98.314C145.525 97.1501 141.727 99.0372 139.384 102.529C137.042 106.021 137.042 109.795 139.384 110.959C141.727 112.123 145.525 110.236 147.868 106.744Z" fill="black"/>
<path d="M149.041 101.425L147.092 100.447C146.352 100.067 145.319 100.117 144.176 100.682C142.981 101.354 141.988 102.258 141.274 103.321C140.561 104.384 140.149 105.577 140.07 106.803C140.07 107.921 140.532 108.72 141.279 109.089L143.227 110.045C143.262 110.067 143.299 110.086 143.338 110.101L143.403 110.135C143.859 110.284 144.352 110.334 144.836 110.282C145.321 110.229 145.783 110.075 146.183 109.833C147.376 109.162 148.37 108.259 149.083 107.196C149.796 106.134 150.209 104.942 150.288 103.717C150.236 102.583 149.782 101.794 149.041 101.425Z" fill="#2790C3"/>
<path d="M150.235 103.706C150.155 104.931 149.742 106.122 149.029 107.185C148.316 108.247 147.323 109.15 146.129 109.821C143.856 110.939 142.018 110.034 142.018 107.781C142.095 106.555 142.507 105.362 143.222 104.299C143.936 103.236 144.933 102.334 146.129 101.665C148.396 100.536 150.235 101.447 150.235 103.706Z" fill="#2790C3"/>
<path opacity="0.3" d="M150.235 103.706C150.155 104.931 149.742 106.122 149.029 107.185C148.316 108.247 147.323 109.15 146.129 109.821C143.856 110.939 142.018 110.034 142.018 107.781C142.095 106.555 142.507 105.362 143.222 104.299C143.936 103.236 144.933 102.334 146.129 101.665C148.396 100.536 150.235 101.447 150.235 103.706Z" fill="black"/>
<path d="M138.973 78.7574C137.11 77.5196 134.83 76.8386 132.477 76.8177H131.899C129.516 76.7956 127.137 76.9829 124.799 77.3767C125.228 77.3767 125.656 77.3767 126.098 77.3767H124.799V78.4164H126.007C130.171 78.5383 134.117 80.0488 137.01 82.6285C139.904 85.2083 141.518 88.6552 141.513 92.2406V96.64C141.512 96.8139 141.555 96.9859 141.637 97.1448C141.719 97.3038 141.839 97.4461 141.989 97.5626C142.139 97.679 142.316 97.7671 142.508 97.821C142.7 97.8749 142.903 97.8934 143.104 97.8754H143.253L144.553 97.5288C144.466 97.5523 144.377 97.5673 144.286 97.5735C144.674 97.5283 145.028 97.362 145.282 97.1063C145.536 96.8506 145.672 96.5235 145.663 96.1872V92.1065C145.65 84.722 141.941 80.7531 138.973 78.7574Z" fill="#2790C3"/>
<path d="M130.793 114.136C130.257 114.136 129.728 114.037 129.241 113.845L125.181 112.23C125.117 112.21 125.059 112.18 125.01 112.14C124.961 112.1 124.922 112.052 124.896 111.998C124.87 111.945 124.857 111.887 124.857 111.829C124.858 111.771 124.873 111.714 124.901 111.661C124.929 111.608 124.97 111.561 125.02 111.523C125.07 111.484 125.129 111.455 125.193 111.437C125.258 111.419 125.325 111.412 125.392 111.418C125.46 111.424 125.525 111.441 125.583 111.47L129.643 113.085C130.161 113.292 130.741 113.355 131.302 113.265C131.864 113.175 132.378 112.936 132.774 112.582L136.672 109.116C136.763 109.038 136.887 108.994 137.016 108.994C137.145 108.994 137.269 109.038 137.36 109.116C137.45 109.196 137.5 109.302 137.5 109.413C137.5 109.523 137.45 109.629 137.36 109.709L133.463 113.175C133.116 113.481 132.701 113.724 132.242 113.89C131.783 114.055 131.29 114.139 130.793 114.136Z" fill="#2790C3"/>
<path opacity="0.5" d="M130.793 114.136C130.257 114.136 129.728 114.037 129.241 113.845L125.181 112.23C125.117 112.21 125.059 112.18 125.01 112.14C124.961 112.1 124.922 112.052 124.896 111.998C124.87 111.945 124.857 111.887 124.857 111.829C124.858 111.771 124.873 111.714 124.901 111.661C124.929 111.608 124.97 111.561 125.02 111.523C125.07 111.484 125.129 111.455 125.193 111.437C125.258 111.419 125.325 111.412 125.392 111.418C125.46 111.424 125.525 111.441 125.583 111.47L129.643 113.085C130.161 113.292 130.741 113.355 131.302 113.265C131.864 113.175 132.378 112.936 132.774 112.582L136.672 109.116C136.763 109.038 136.887 108.994 137.016 108.994C137.145 108.994 137.269 109.038 137.36 109.116C137.45 109.196 137.5 109.302 137.5 109.413C137.5 109.523 137.45 109.629 137.36 109.709L133.463 113.175C133.116 113.481 132.701 113.724 132.242 113.89C131.783 114.055 131.29 114.139 130.793 114.136Z" fill="black"/>
<path d="M126.247 111.057C126.247 111.38 126.135 111.696 125.927 111.964C125.719 112.232 125.422 112.442 125.076 112.565C124.729 112.689 124.348 112.721 123.98 112.658C123.612 112.595 123.274 112.44 123.009 112.211C122.743 111.983 122.563 111.692 122.49 111.376C122.416 111.059 122.454 110.731 122.598 110.432C122.741 110.134 122.984 109.879 123.296 109.7C123.608 109.521 123.975 109.425 124.35 109.425C124.853 109.425 125.335 109.597 125.691 109.903C126.047 110.209 126.247 110.624 126.247 111.057Z" fill="#2790C3"/>
<path opacity="0.5" d="M126.247 111.057C126.247 111.38 126.135 111.696 125.927 111.964C125.719 112.232 125.422 112.442 125.076 112.565C124.729 112.689 124.348 112.721 123.98 112.658C123.612 112.595 123.274 112.44 123.009 112.211C122.743 111.983 122.563 111.692 122.49 111.376C122.416 111.059 122.454 110.731 122.598 110.432C122.741 110.134 122.984 109.879 123.296 109.7C123.608 109.521 123.975 109.425 124.35 109.425C124.853 109.425 125.335 109.597 125.691 109.903C126.047 110.209 126.247 110.624 126.247 111.057Z" fill="black"/>
<path d="M145.65 92.1078V96.1885C145.658 96.5248 145.522 96.852 145.268 97.1076C145.014 97.3633 144.66 97.5296 144.273 97.5749C144.059 97.5945 143.842 97.5751 143.638 97.518C143.433 97.4609 143.244 97.3673 143.084 97.2434C142.925 97.1195 142.797 96.968 142.709 96.7988C142.622 96.6296 142.577 96.4464 142.577 96.2612V92.1078C142.581 90.1255 142.119 88.1631 141.218 86.3386C140.317 84.5142 138.997 82.8653 137.337 81.4913C135.677 80.1173 133.71 79.0466 131.557 78.3436C129.403 77.6405 127.106 77.3197 124.805 77.4004C127.143 77.0066 129.522 76.8193 131.905 76.8413H132.47C134.823 76.8622 137.103 77.5433 138.966 78.7811C141.941 80.7544 145.65 84.7233 145.65 92.1078Z" fill="#2790C3"/>
<path opacity="0.5" d="M145.65 92.1078V96.1885C145.658 96.5248 145.522 96.852 145.268 97.1076C145.014 97.3633 144.66 97.5296 144.273 97.5749C144.059 97.5945 143.842 97.5751 143.638 97.518C143.433 97.4609 143.244 97.3673 143.084 97.2434C142.925 97.1195 142.797 96.968 142.709 96.7988C142.622 96.6296 142.577 96.4464 142.577 96.2612V92.1078C142.581 90.1255 142.119 88.1631 141.218 86.3386C140.317 84.5142 138.997 82.8653 137.337 81.4913C135.677 80.1173 133.71 79.0466 131.557 78.3436C129.403 77.6405 127.106 77.3197 124.805 77.4004C127.143 77.0066 129.522 76.8193 131.905 76.8413H132.47C134.823 76.8622 137.103 77.5433 138.966 78.7811C141.941 80.7544 145.65 84.7233 145.65 92.1078Z" fill="black"/>
<path d="M138.348 169.01C138.348 169.01 135.204 176.461 146.442 179.815C146.442 179.815 150.112 175.175 146.442 171.38C142.772 167.584 138.348 169.01 138.348 169.01Z" fill="#2790C3"/>
<path opacity="0.7" d="M138.348 169.01C138.348 169.01 135.204 176.461 146.442 179.815C146.442 179.815 150.112 175.175 146.442 171.38C142.772 167.584 138.348 169.01 138.348 169.01Z" fill="black"/>
<path d="M142.29 169.352C142.29 169.352 131.312 172.812 131.37 174.153C131.429 175.495 136.034 174.578 136.034 174.578L134.352 175.529C132.58 176.523 131.208 177.964 130.422 179.654C130.251 180.027 130.245 180.441 130.405 180.817C130.566 181.193 130.882 181.506 131.293 181.694L135.463 183.595C135.698 183.703 135.956 183.768 136.222 183.788C136.488 183.809 136.755 183.783 137.009 183.712C137.263 183.642 137.497 183.529 137.699 183.379C137.901 183.229 138.066 183.046 138.185 182.84C138.417 182.445 138.738 182.093 139.13 181.806C139.521 181.518 139.975 181.299 140.465 181.163C142.732 180.515 146.96 178.648 148.656 173.539L142.29 169.352Z" fill="#945959"/>
<path d="M145.584 121.349C145.584 121.349 139.738 124.144 142.843 132.63C145.948 141.116 151.775 154.28 151.775 154.28L138.348 169.01C139.782 169.159 141.164 169.566 142.403 170.206C143.642 170.845 144.711 171.703 145.539 172.722C146.332 173.758 146.827 174.941 146.984 176.175C147.141 177.408 146.955 178.656 146.441 179.815L163.11 161.368C164.651 159.664 165.675 157.655 166.087 155.524C166.5 153.394 166.289 151.208 165.474 149.165L158.329 131.21C157.455 129.017 156.004 127.027 154.088 125.397C152.172 123.767 149.844 122.54 147.286 121.813L145.584 121.349Z" fill="#2790C3"/>
<path d="M46.9009 71.2219L21.067 58.3648C20.7697 58.1875 20.4258 58.0767 20.0662 58.0426C19.7067 58.0084 19.3429 58.0519 19.0078 58.1691C18.9372 58.1972 18.8698 58.2309 18.8065 58.2698L13.1876 61.1039H13.2266C12.5185 61.4505 12.0703 62.2555 12.0703 63.407V88.1374C12.0703 90.2281 13.5449 92.6598 15.3702 93.5653L41.204 106.422C41.5318 106.626 41.922 106.743 42.3262 106.758C42.7303 106.773 43.1307 106.685 43.4776 106.506C43.46 106.512 43.4444 106.522 43.4321 106.534L49.012 103.739C49.7395 103.404 50.2007 102.588 50.2007 101.419V76.6498C50.2007 74.5592 48.7522 72.1275 46.9009 71.2219Z" fill="#2790C3"/>
<path d="M49.2782 73.5641C48.7556 72.6076 47.932 71.7962 46.9008 71.2219L21.0669 58.3648C20.7696 58.1875 20.4257 58.0767 20.0661 58.0426C19.7066 58.0084 19.3428 58.0519 19.0077 58.1691C18.9371 58.1972 18.8697 58.2309 18.8064 58.2698L13.1875 61.1039C13.5312 60.9527 13.9166 60.8858 14.3016 60.9104C14.6865 60.9351 15.0562 61.0504 15.3701 61.2437L41.2039 74.1008C42.2702 74.7007 43.1153 75.5502 43.6399 76.5492L49.2782 73.5641Z" fill="#2790C3"/>
<path d="M44.5054 104.246C44.5054 105.364 44.0897 106.141 43.4336 106.482L49.0135 103.687C49.741 103.351 50.2022 102.535 50.2022 101.367V76.6477C50.1748 75.5718 49.8591 74.5158 49.2798 73.562L43.6415 76.5471C44.1828 77.4728 44.4779 78.4906 44.5054 79.5266V104.246Z" fill="#2790C3"/>
<path opacity="0.3" d="M49.2782 73.5641C48.7556 72.6076 47.932 71.7962 46.9008 71.2219L21.0669 58.3648C20.7696 58.1875 20.4257 58.0767 20.0661 58.0426C19.7066 58.0084 19.3428 58.0519 19.0077 58.1691C18.9371 58.1972 18.8697 58.2309 18.8064 58.2698L13.1875 61.1039C13.5312 60.9527 13.9166 60.8858 14.3016 60.9104C14.6865 60.9351 15.0562 61.0504 15.3701 61.2437L41.2039 74.1008C42.2702 74.7007 43.1153 75.5502 43.6399 76.5492L49.2782 73.5641Z" fill="black"/>
<path opacity="0.6" d="M44.5054 104.246C44.5054 105.364 44.0897 106.141 43.4336 106.482L49.0135 103.687C49.741 103.351 50.2022 102.535 50.2022 101.367V76.6477C50.1748 75.5718 49.8591 74.5158 49.2798 73.562L43.6415 76.5471C44.1828 77.4728 44.4779 78.4906 44.5054 79.5266V104.246Z" fill="black"/>
<path d="M36.9287 86.6092C36.9287 89.8123 35.4542 90.9023 33.2456 89.8011C32.6364 89.5026 32.1036 89.1011 31.6794 88.6207C31.2552 88.1404 30.9483 87.5911 30.7772 87.0061C30.1276 87.6936 29.1208 87.7384 27.7047 87.034C25.3792 85.8769 23.5474 83.121 23.5474 80.4433C23.5474 77.7657 25.3597 76.8434 27.7047 78.0061C28.8946 78.6096 29.8558 79.4969 30.4719 80.5607V79.5042L32.9208 80.7228V86.5141C32.8844 86.8189 32.9456 87.1264 33.0979 87.4034C33.2502 87.6803 33.4878 87.916 33.7848 88.0849C34.6097 88.4986 35.1164 87.7999 35.1164 85.7259C35.1164 82.098 32.4142 78.252 28.4192 76.2676C24.4243 74.2831 21.7285 75.6638 21.7285 79.398C21.7809 81.3794 22.4153 83.3172 23.5728 85.0307C24.7302 86.7442 26.3729 88.1776 28.3478 89.1974C29.4201 89.7658 30.6377 90.0997 31.8945 90.17L32.4726 92.0986C31.0093 91.997 29.5952 91.5965 28.3478 90.9303C23.1511 88.3421 19.7148 83.1322 19.7148 78.4142C19.7148 73.6962 23.1836 71.9856 28.4192 74.5906C33.4795 77.1005 36.9287 82.126 36.9287 86.6092ZM30.5109 83.9204C30.5235 83.2115 30.3225 82.512 29.9275 81.8899C29.5325 81.2678 28.9569 80.7444 28.2568 80.3707C26.9577 79.7166 26.0288 80.175 26.0288 81.6955C26.0121 82.4055 26.2083 83.1072 26.5986 83.7329C26.9889 84.3586 27.56 84.8872 28.2568 85.2676C29.556 85.8992 30.5109 85.4912 30.5109 83.9204Z" fill="#2790C3"/>
<g opacity="0.9">
<path opacity="0.9" d="M36.9287 86.6092C36.9287 89.8123 35.4542 90.9023 33.2456 89.8011C32.6364 89.5026 32.1036 89.1011 31.6794 88.6207C31.2552 88.1404 30.9483 87.5911 30.7772 87.0061C30.1276 87.6936 29.1208 87.7384 27.7047 87.034C25.3792 85.8769 23.5474 83.121 23.5474 80.4433C23.5474 77.7657 25.3597 76.8434 27.7047 78.0061C28.8946 78.6096 29.8558 79.4969 30.4719 80.5607V79.5042L32.9208 80.7228V86.5141C32.8844 86.8189 32.9456 87.1264 33.0979 87.4034C33.2502 87.6803 33.4878 87.916 33.7848 88.0849C34.6097 88.4986 35.1164 87.7999 35.1164 85.7259C35.1164 82.098 32.4142 78.252 28.4192 76.2676C24.4243 74.2831 21.7285 75.6638 21.7285 79.398C21.7809 81.3794 22.4153 83.3172 23.5728 85.0307C24.7302 86.7442 26.3729 88.1776 28.3478 89.1974C29.4201 89.7658 30.6377 90.0997 31.8945 90.17L32.4726 92.0986C31.0093 91.997 29.5952 91.5965 28.3478 90.9303C23.1511 88.3421 19.7148 83.1322 19.7148 78.4142C19.7148 73.6962 23.1836 71.9856 28.4192 74.5906C33.4795 77.1005 36.9287 82.126 36.9287 86.6092ZM30.5109 83.9204C30.5235 83.2115 30.3225 82.512 29.9275 81.8899C29.5325 81.2678 28.9569 80.7444 28.2568 80.3707C26.9577 79.7166 26.0288 80.175 26.0288 81.6955C26.0121 82.4055 26.2083 83.1072 26.5986 83.7329C26.9889 84.3586 27.56 84.8872 28.2568 85.2676C29.556 85.8992 30.5109 85.4912 30.5109 83.9204Z" fill="white"/>
</g>
<path d="M46.9009 115.259L21.067 102.402C20.7701 102.224 20.4257 102.113 20.0658 102.08C19.7058 102.046 19.3419 102.092 19.0078 102.212C18.9372 102.24 18.8698 102.274 18.8065 102.313L13.1876 105.147H13.2266C12.5185 105.493 12.0703 106.298 12.0703 107.444V132.164C12.0703 134.26 13.5449 136.686 15.3702 137.591L41.204 150.449C41.5311 150.654 41.9215 150.772 42.3261 150.786C42.7306 150.801 43.1312 150.713 43.4776 150.532L43.4321 150.566L49.012 147.743C49.7395 147.413 50.2007 146.625 50.2007 145.423V120.682C50.2007 118.591 48.7522 116.165 46.9009 115.259Z" fill="#2790C3"/>
<path d="M49.2782 117.601C48.7574 116.644 47.9334 115.832 46.9008 115.259L21.0669 102.402C20.77 102.224 20.4256 102.113 20.0657 102.08C19.7057 102.046 19.3418 102.092 19.0077 102.212C18.9371 102.24 18.8697 102.274 18.8064 102.313L13.1875 105.147C13.5304 104.994 13.9156 104.926 14.3007 104.95C14.6858 104.973 15.0558 105.088 15.3701 105.281L41.2039 118.138C42.2719 118.739 43.1173 119.59 43.6399 120.592L49.2782 117.601Z" fill="#2790C3"/>
<path d="M44.5054 148.28C44.5054 149.398 44.0897 150.176 43.4336 150.544L49.0135 147.721C49.741 147.392 50.2022 146.603 50.2022 145.402V120.682C50.1747 119.608 49.859 118.554 49.2798 117.602L43.6415 120.587C44.1827 121.511 44.4778 122.527 44.5054 123.561V148.28Z" fill="#2790C3"/>
<path opacity="0.3" d="M49.2782 117.601C48.7574 116.644 47.9334 115.832 46.9008 115.259L21.0669 102.402C20.77 102.224 20.4256 102.113 20.0657 102.08C19.7057 102.046 19.3418 102.092 19.0077 102.212C18.9371 102.24 18.8697 102.274 18.8064 102.313L13.1875 105.147C13.5304 104.994 13.9156 104.926 14.3007 104.95C14.6858 104.973 15.0558 105.088 15.3701 105.281L41.2039 118.138C42.2719 118.739 43.1173 119.59 43.6399 120.592L49.2782 117.601Z" fill="black"/>
<path opacity="0.6" d="M44.5054 148.28C44.5054 149.398 44.0897 150.176 43.4336 150.544L49.0135 147.721C49.741 147.392 50.2022 146.603 50.2022 145.402V120.682C50.1747 119.608 49.859 118.554 49.2798 117.602L43.6415 120.587C44.1827 121.511 44.4778 122.527 44.5054 123.561V148.28Z" fill="black"/>
<path d="M25.3994 126.312L19.1699 117.602V129.403L25.3994 126.312Z" fill="#2790C3"/>
<path d="M31.1875 128.82L37.404 138.083V126.299L31.1875 128.82Z" fill="#2790C3"/>
<path d="M20.1133 117.204L26.5117 126.148C26.5387 126.168 26.5628 126.191 26.5831 126.216C26.5887 126.238 26.5887 126.26 26.5831 126.283L28.4864 128.943L30.0973 128.289C30.1224 128.266 30.1508 128.245 30.1818 128.228C30.2453 128.196 30.3164 128.177 30.3897 128.172L36.8855 125.55L20.1133 117.204Z" fill="#2790C3"/>
<path d="M30.2471 129.201L28.5062 129.906C28.4392 129.933 28.3658 129.946 28.2919 129.945C28.2022 129.946 28.1138 129.927 28.0353 129.889C27.9567 129.852 27.8907 129.798 27.8436 129.732L25.9404 127.072L19.6914 130.18L36.5091 138.531L30.2471 129.201Z" fill="#2790C3"/>
<g opacity="0.9">
<path opacity="0.9" d="M25.4014 126.311L19.1719 117.602V129.402L25.4014 126.311Z" fill="white"/>
<path opacity="0.9" d="M31.1875 128.822L37.404 138.084V126.301L31.1875 128.822Z" fill="white"/>
<path opacity="0.9" d="M20.1152 117.206L26.5136 126.15C26.5407 126.169 26.5647 126.192 26.5851 126.217C26.5907 126.239 26.5907 126.262 26.5851 126.284L28.4883 128.945L30.0993 128.291C30.1244 128.267 30.1528 128.247 30.1837 128.229C30.2472 128.197 30.3183 128.178 30.3916 128.173L36.8874 125.552L20.1152 117.206Z" fill="white"/>
<path opacity="0.9" d="M30.2491 129.203L28.5082 129.907C28.4411 129.934 28.3678 129.947 28.2938 129.946C28.2042 129.947 28.1158 129.928 28.0372 129.891C27.9587 129.854 27.8927 129.8 27.8456 129.734L25.9423 127.073L19.6934 130.181L36.511 138.533L30.2491 129.203Z" fill="white"/>
</g>
<path d="M46.9009 27.2043L21.067 14.3472C20.7701 14.1688 20.4257 14.0579 20.0658 14.0247C19.7058 13.9915 19.3419 14.037 19.0078 14.1571C18.9372 14.1852 18.8698 14.2188 18.8065 14.2577L13.1876 17.0919H13.2266C12.5185 17.4329 12.0703 18.2434 12.0703 19.3894V44.1086C12.0703 46.1993 13.5449 48.6309 15.3702 49.5365L41.204 62.3936C41.5311 62.599 41.9215 62.7166 42.3261 62.7315C42.7306 62.7464 43.1312 62.6581 43.4776 62.4775L43.4321 62.5054L49.012 59.7104C49.7395 59.3806 50.2007 58.5924 50.2007 57.3905V32.6098C50.2007 30.5192 48.7522 28.0875 46.9009 27.2043Z" fill="#2790C3"/>
<path d="M49.2782 29.5302C48.7575 28.5711 47.9336 27.7575 46.9008 27.1824L21.0669 14.3476C20.77 14.1693 20.4256 14.0584 20.0657 14.0252C19.7057 13.992 19.3418 14.0375 19.0077 14.1576C18.9371 14.1856 18.8697 14.2193 18.8064 14.2582L13.1875 17.0924C13.5304 16.9397 13.9156 16.8715 14.3007 16.8952C14.6858 16.9189 15.0558 17.0335 15.3701 17.2265L41.2039 30.0836C42.2719 30.6844 43.1173 31.536 43.6399 32.5377L49.2782 29.5302Z" fill="#2790C3"/>
<path d="M44.5054 60.1871C44.5054 61.3051 44.0897 62.0821 43.4336 62.4231L49.0135 59.6281C49.741 59.2983 50.2022 58.5101 50.2022 57.3082V32.6114C50.1747 31.5372 49.859 30.4831 49.2798 29.5312L43.6415 32.5163C44.1827 33.4401 44.4778 34.456 44.5054 35.4902V60.1871Z" fill="#2790C3"/>
<path opacity="0.3" d="M49.2782 29.5302C48.7575 28.5711 47.9336 27.7575 46.9008 27.1824L21.0669 14.3476C20.77 14.1693 20.4256 14.0584 20.0657 14.0252C19.7057 13.992 19.3418 14.0375 19.0077 14.1576C18.9371 14.1856 18.8697 14.2193 18.8064 14.2582L13.1875 17.0924C13.5304 16.9397 13.9156 16.8715 14.3007 16.8952C14.6858 16.9189 15.0558 17.0335 15.3701 17.2265L41.2039 30.0836C42.2719 30.6844 43.1173 31.536 43.6399 32.5377L49.2782 29.5302Z" fill="black"/>
<path opacity="0.6" d="M44.5054 60.1871C44.5054 61.3051 44.0897 62.0821 43.4336 62.4231L49.0135 59.6281C49.741 59.2983 50.2022 58.5101 50.2022 57.3082V32.6114C50.1747 31.5372 49.859 30.4831 49.2798 29.5312L43.6415 32.5163C44.1827 33.4401 44.4778 34.456 44.5054 35.4902V60.1871Z" fill="black"/>
<path d="M36.0537 49.5664C35.0598 48.1577 34.0594 46.7713 33.0656 45.3515C32.9079 45.0825 32.6876 44.8444 32.4182 44.6521C32.1489 44.4597 31.8363 44.3172 31.5001 44.2335C31.0194 44.1496 30.5387 44.0546 30.045 43.9316C29.8692 43.8685 29.7213 43.7589 29.6228 43.6186C27.9965 41.2233 26.7036 38.6716 25.7708 36.0161C25.7509 35.9593 25.7453 35.8996 25.7543 35.8408C25.7632 35.782 25.7866 35.7255 25.8227 35.6751C26.1281 35.4124 26.4723 35.172 26.7841 34.9372C27.0959 34.7024 27.2583 34.1602 27.031 33.4558C26.5503 31.9633 26.0891 30.4708 25.6084 28.9838C25.5154 28.5613 25.2947 28.1673 24.9686 27.8415C24.6424 27.5157 24.2224 27.2696 23.7506 27.1279C22.7031 26.8773 21.591 26.9124 20.5676 27.2285C20.1714 27.3571 19.9635 27.6645 19.957 28.1956C20.1259 29.2186 20.2364 30.2304 20.4637 31.2701C22.066 38.7682 25.9202 45.6626 32.0263 51.9533C32.1857 52.1619 32.3998 52.3354 32.6514 52.4596C32.9031 52.5839 33.1851 52.6556 33.4748 52.6688C34.4857 52.6482 35.4569 52.3261 36.2225 51.7577C36.8007 51.3105 36.7422 50.5167 36.0537 49.5664Z" fill="#2790C3"/>
<path d="M35.9752 41.9449C35.8394 40.337 35.3244 38.7697 34.4617 37.3387C33.8176 36.2207 32.998 35.1843 32.0258 34.2585C31.7725 34.0126 31.5581 33.9343 31.4282 34.1188C31.2983 34.3033 31.4282 34.566 31.675 34.8064L31.9283 35.0579C33.7238 36.8414 34.8553 39.048 35.1763 41.3914C35.1731 41.5624 35.1927 41.7331 35.2347 41.9001C35.3163 42.0924 35.4473 42.2663 35.618 42.4088C35.7544 42.4927 35.9103 42.4088 36.0207 42.4088C35.9817 42.1796 35.9882 42.0623 35.9752 41.9449Z" fill="#2790C3"/>
<path d="M30.0908 37.3582C30.9065 38.1304 31.4022 39.1132 31.5004 40.1533C31.5432 40.3114 31.611 40.4638 31.7018 40.6061C32.098 40.8856 32.2929 40.7905 32.2929 40.4384C32.154 39.1048 31.5131 37.8467 30.4676 36.8551C30.2207 36.6371 30.0194 36.5701 29.9024 36.7545C29.8604 36.8599 29.8558 36.9736 29.8894 37.0812C29.923 37.1887 29.9931 37.2852 30.0908 37.3582Z" fill="#2790C3"/>
<g opacity="0.9">
<path opacity="0.9" d="M36.0537 49.5664C35.0598 48.1577 34.0594 46.7713 33.0656 45.3515C32.9079 45.0825 32.6876 44.8444 32.4182 44.6521C32.1489 44.4597 31.8363 44.3172 31.5001 44.2335C31.0194 44.1496 30.5387 44.0546 30.045 43.9316C29.8692 43.8685 29.7213 43.7589 29.6228 43.6186C27.9965 41.2233 26.7036 38.6716 25.7708 36.0161C25.7509 35.9593 25.7453 35.8996 25.7543 35.8408C25.7632 35.782 25.7866 35.7255 25.8227 35.6751C26.1281 35.4124 26.4723 35.172 26.7841 34.9372C27.0959 34.7024 27.2583 34.1602 27.031 33.4558C26.5503 31.9633 26.0891 30.4708 25.6084 28.9838C25.5154 28.5613 25.2947 28.1673 24.9686 27.8415C24.6424 27.5157 24.2224 27.2696 23.7506 27.1279C22.7031 26.8773 21.591 26.9124 20.5676 27.2285C20.1714 27.3571 19.9635 27.6645 19.957 28.1956C20.1259 29.2186 20.2364 30.2304 20.4637 31.2701C22.066 38.7682 25.9202 45.6626 32.0263 51.9533C32.1857 52.1619 32.3998 52.3354 32.6514 52.4596C32.9031 52.5839 33.1851 52.6556 33.4748 52.6688C34.4857 52.6482 35.4569 52.3261 36.2225 51.7577C36.8007 51.3105 36.7422 50.5167 36.0537 49.5664Z" fill="white"/>
<path opacity="0.9" d="M35.9752 41.9466C35.8394 40.3387 35.3244 38.7714 34.4617 37.3404C33.8176 36.2224 32.998 35.186 32.0258 34.2603C31.7725 34.0143 31.5581 33.936 31.4282 34.1205C31.2983 34.305 31.4282 34.5677 31.675 34.8081L31.9283 35.0596C33.7238 36.8432 34.8553 39.0497 35.1763 41.3932C35.1731 41.5641 35.1927 41.7348 35.2347 41.9019C35.3163 42.0941 35.4473 42.268 35.618 42.4105C35.7544 42.4944 35.9103 42.4105 36.0207 42.4105C35.9817 42.1814 35.9882 42.064 35.9752 41.9466Z" fill="white"/>
<path opacity="0.9" d="M30.0908 37.3575C30.9065 38.1296 31.4022 39.1125 31.5004 40.1525C31.5432 40.3107 31.611 40.463 31.7018 40.6053C32.098 40.8848 32.2929 40.7898 32.2929 40.4376C32.154 39.1041 31.5131 37.8459 30.4676 36.8544C30.2207 36.6364 30.0194 36.5693 29.9024 36.7538C29.8604 36.8591 29.8558 36.9729 29.8894 37.0804C29.923 37.188 29.9931 37.2845 30.0908 37.3575Z" fill="white"/>
</g>
<path d="M179.448 12.3792L185.535 15.3587V13.5028C185.535 13.3742 185.535 13.2401 185.535 13.1115C185.535 12.9829 185.535 12.86 185.535 12.737V12.6699C185.756 10.2159 187.919 9.27115 190.556 10.5848C191.75 11.2168 192.773 12.0611 193.557 13.0612C194.148 9.70717 197.312 8.52208 201.138 10.4171C205.386 12.5301 208.829 17.6842 208.829 21.8879V25.8568C208.823 26.1743 208.914 26.4876 209.093 26.7652C209.272 27.0429 209.532 27.2752 209.849 27.4388L213.434 29.2444C214.208 29.6392 214.85 30.2002 215.296 30.8724C215.742 31.5446 215.978 32.305 215.981 33.0792C215.981 33.4004 215.882 33.7159 215.696 33.994C215.509 34.2722 215.241 34.5031 214.917 34.6634C214.594 34.8238 214.227 34.9081 213.854 34.9077C213.481 34.9073 213.114 34.8222 212.791 34.6612L179.539 18.1202C178.657 17.6793 177.924 17.0475 177.414 16.2875C176.903 15.5275 176.633 14.6658 176.629 13.7879C176.629 13.5038 176.715 13.2245 176.88 12.9782C177.044 12.7319 177.281 12.5271 177.567 12.3844C177.852 12.2418 178.176 12.1662 178.507 12.1653C178.837 12.1643 179.161 12.2381 179.448 12.3792Z" fill="#E6E6E6"/>
<path d="M225.849 11.603L230.273 13.7887V12.4247C230.273 12.3297 230.273 12.2347 230.273 12.1396C230.273 12.0446 230.273 11.9552 230.273 11.8657V11.8322C230.435 10.049 232.007 9.36139 233.923 10.3173C234.791 10.7748 235.535 11.3866 236.106 12.1117C236.541 9.68561 238.841 8.80797 241.621 10.1887C244.713 11.726 247.214 15.4601 247.214 18.5291V21.4191C247.216 21.6457 247.287 21.8678 247.419 22.0638C247.551 22.2598 247.74 22.4229 247.967 22.5371L250.565 23.8508C251.131 24.1369 251.599 24.5455 251.924 25.0359C252.249 25.5263 252.419 26.0814 252.417 26.6458C252.416 26.877 252.346 27.1041 252.212 27.3047C252.079 27.5054 251.887 27.6726 251.656 27.79C251.424 27.9074 251.161 27.9708 250.893 27.974C250.624 27.9773 250.359 27.9203 250.124 27.8086L225.914 15.7788C225.272 15.4594 224.74 15.0005 224.369 14.4482C223.999 13.8958 223.803 13.2694 223.803 12.6316C223.802 12.4251 223.865 12.2222 223.984 12.0431C224.103 11.864 224.275 11.7149 224.482 11.6108C224.689 11.5067 224.924 11.4512 225.164 11.4498C225.404 11.4484 225.64 11.5013 225.849 11.603Z" fill="#E6E6E6"/>
</svg>
