<svg width="107" height="107" viewBox="0 0 114 115" fill="none" xmlns="http://www.w3.org/2000/svg">
<path d="M57.0004 103.759C84.6548 103.759 107.073 81.3411 107.073 53.6867C107.073 26.0323 84.6548 3.61401 57.0004 3.61401C29.346 3.61401 6.92773 26.0323 6.92773 53.6867C6.92773 81.3411 29.346 103.759 57.0004 103.759Z" fill="#0079A0" stroke="#0079A0" stroke-width="5.6693" stroke-miterlimit="10"/>
<path d="M97.1985 66.55L95.0217 77.3804H19.941L16.8008 66.55H97.1985Z" fill="#0079A0"/>
<path d="M96.0447 66.2321L93.868 77.0623L95.0211 76.1843H19.9405L21.0937 77.0623L17.9533 66.2321L16.8001 67.7458H97.1978C98.7368 67.7458 98.7394 65.3541 97.1978 65.3541H16.8001C16.6167 65.3564 16.4362 65.4004 16.2723 65.4828C16.1085 65.5652 15.9655 65.6839 15.8544 65.8298C15.7432 65.9757 15.6668 66.145 15.6308 66.3249C15.5949 66.5048 15.6004 66.6905 15.6469 66.8679L18.7873 77.6981C18.8607 77.9483 19.0122 78.1685 19.2197 78.3265C19.4272 78.4845 19.6798 78.5719 19.9405 78.5761H95.0211C95.2823 78.5738 95.5358 78.487 95.7436 78.3288C95.9515 78.1705 96.1025 77.9493 96.1743 77.6981L98.351 66.8679C98.6531 65.365 96.3482 64.7219 96.0447 66.2321Z" fill="white"/>
<path d="M93.93 62.2052H20.0697C18.2589 62.2052 16.791 63.6731 16.791 65.4839V67.6153C16.791 69.4261 18.2589 70.894 20.0697 70.894H93.93C95.7408 70.894 97.2087 69.4261 97.2087 67.6153V65.4839C97.2087 63.6731 95.7408 62.2052 93.93 62.2052Z" fill="#0079A0"/>
<path d="M93.9299 69.6984H20.9434C20.6657 69.7132 20.3874 69.7132 20.1096 69.6984C17.9633 69.464 17.9199 67.6027 17.9867 65.8949C18.0762 63.61 19.6009 63.4011 21.3381 63.4011H92.1983C93.5997 63.4011 95.3274 63.154 95.9159 64.8576C96.5136 66.5875 96.0607 69.5406 93.9299 69.6982C92.4041 69.8111 92.3918 72.2037 93.9299 72.0899C96.4409 71.9042 98.275 70.1724 98.4044 67.6154C98.4895 65.9328 98.5206 64.1195 97.4344 62.7323C96.1961 61.1511 94.4697 61.0094 92.6613 61.0094H31.6102C27.8249 61.0094 24.0119 60.8737 20.2284 61.0094C16.4184 61.146 15.4547 64.2977 15.595 67.5423C15.7202 70.4363 17.8825 72.0548 20.6193 72.0899C32.6793 72.2446 44.7516 72.0899 56.8126 72.0899C68.9569 72.0899 81.1238 72.3085 93.2663 72.0899C93.4873 72.086 93.7088 72.0899 93.9298 72.0899C95.4688 72.0901 95.4714 69.6984 93.9299 69.6984Z" fill="white"/>
<path d="M85.7223 65.8524C87.1284 61.222 87.4275 56.3262 86.5958 51.5591C85.764 46.792 83.8246 42.2868 80.9336 38.4062C78.0426 34.5255 74.2808 31.3779 69.951 29.2167C65.6213 27.0556 60.8447 25.9412 56.0056 25.9633C51.1665 25.9855 46.4002 27.1435 42.0905 29.3443C37.7807 31.545 34.0479 34.7269 31.1925 38.6338C28.3371 42.5407 26.439 47.0635 25.6509 51.838C24.8628 56.6126 25.2068 61.5054 26.6552 66.1227L85.7223 65.8524Z" fill="#0079A0"/>
<path d="M86.8754 66.1703C91.4387 50.5871 83.6848 33.6535 68.6669 27.2838C54.4151 21.2391 37.48 26.535 29.1123 39.5231C23.9843 47.4826 22.7698 57.4103 25.5019 66.4406C25.5755 66.6907 25.7271 66.9107 25.9345 67.0687C26.1419 67.2266 26.3944 67.3141 26.655 67.3186L78.4394 67.0815L85.7222 67.0482C87.2609 67.0412 87.264 64.6494 85.7222 64.6565L33.9378 64.8935L26.655 64.9268L27.8081 65.8048C23.4376 51.3586 30.4348 35.5786 44.3773 29.544C57.5291 23.8519 73.3657 28.7001 81.116 40.73C83.4381 44.3744 84.9483 48.476 85.5441 52.756C86.14 57.036 85.8074 61.3942 84.569 65.5342C84.1356 67.0144 86.443 67.6466 86.8754 66.1703Z" fill="white"/>
<path d="M62.5146 65.7998C62.5146 56.0873 48.2871 58.7843 48.2871 48.7816C48.2871 44.2759 51.7135 41.0618 56.2833 41.0618C60.0003 41.0618 62.0806 42.659 63.9194 44.6012L62.6131 45.9715C60.7498 44.1278 59.2659 42.9841 56.2437 42.9841C52.8373 42.9841 50.5151 45.4392 50.5151 48.6535C50.5151 57.281 64.7426 54.3723 64.7426 65.6518" fill="#0079A0"/>
<path d="M63.7099 65.7997C63.645 62.7237 62.2765 60.2833 59.7849 58.5075C57.4146 56.8181 54.5467 55.9533 52.2227 54.1963C49.3577 52.0303 48.4895 47.872 50.7097 44.8687C52.1565 42.9117 54.5667 42.1446 56.9219 42.2737C59.4591 42.4129 61.3582 43.6707 63.0732 45.4465V43.7553L61.7669 45.1256H63.4582C60.3986 42.14 55.5305 40.2398 51.7638 43.3173C48.9573 45.6104 48.5367 50.0373 50.6748 52.9136C52.468 55.326 55.4842 56.3532 58.0448 57.7089C61.3461 59.4567 63.4781 61.7401 63.5461 65.6514C63.5728 67.1889 65.9648 67.1936 65.9378 65.6514C65.8856 62.6572 64.903 59.8808 62.6113 57.8755C60.6002 56.1157 58.1214 55.1485 55.7917 53.908C53.6553 52.7704 51.6887 51.3085 51.7102 48.6531C51.6877 47.5412 52.0889 46.4623 52.8325 45.6353C53.576 44.8083 54.6063 44.2951 55.7143 44.1997C58.2365 43.9319 60.0527 45.144 61.7668 46.8167C61.9932 47.037 62.2966 47.1603 62.6125 47.1603C62.9283 47.1603 63.2317 47.037 63.4581 46.8167L64.7644 45.4463C64.9832 45.2192 65.1055 44.9161 65.1055 44.6007C65.1055 44.2853 64.9832 43.9822 64.7644 43.7551C61.3239 40.1926 56.0168 38.4945 51.4392 41.1043C47.6783 43.2484 46.1563 48.0587 47.6483 52.0684C48.8491 55.2955 51.8933 56.9606 54.7966 58.4317C58.0212 60.0656 61.2323 61.7333 61.3181 65.7993C61.3506 67.3362 63.7424 67.3416 63.7098 65.7993L63.7099 65.7997Z" fill="white"/>
<path d="M57.1408 36.2301H55.2578V42.1164H57.1408V36.2301Z" fill="#0079A0"/>
<path d="M55.2584 37.4261H57.1414L55.9455 36.2303V42.1166L57.1414 40.9207H55.2584L56.4543 42.1166V36.2301C56.4543 34.6912 54.0625 34.6886 54.0625 36.2301V42.1165C54.067 42.4322 54.1944 42.7338 54.4177 42.9571C54.641 43.1804 54.9426 43.3079 55.2584 43.3124H57.1414C57.4572 43.3079 57.7587 43.1804 57.982 42.9571C58.2053 42.7338 58.3328 42.4322 58.3373 42.1165V36.2301C58.3328 35.9144 58.2053 35.6128 57.982 35.3895C57.7587 35.1662 57.4572 35.0388 57.1414 35.0343H55.2584C53.7194 35.0344 53.7169 37.4261 55.2584 37.4261Z" fill="white"/>
<defs>
<filter id="filter0_d_202_796" x="0.09375" y="0.779419" width="113.814" height="113.815" filterUnits="userSpaceOnUse" color-interpolation-filters="sRGB">
<feFlood flood-opacity="0" result="BackgroundImageFix"/>
<feColorMatrix in="SourceAlpha" type="matrix" values="0 0 0 0 0 0 0 0 0 0 0 0 0 0 0 0 0 0 127 0" result="hardAlpha"/>
<feOffset dy="4"/>
<feGaussianBlur stdDeviation="2"/>
<feComposite in2="hardAlpha" operator="out"/>
<feColorMatrix type="matrix" values="0 0 0 0 0 0 0 0 0 0 0 0 0 0 0 0 0 0 0.25 0"/>
<feBlend mode="normal" in2="BackgroundImageFix" result="effect1_dropShadow_202_796"/>
<feBlend mode="normal" in="SourceGraphic" in2="effect1_dropShadow_202_796" result="shape"/>
</filter>
</defs>
</svg>
