<svg width="107" height="107" viewBox="0 0 107 107" fill="none" xmlns="http://www.w3.org/2000/svg">
<circle cx="53.5" cy="53.5" r="53.5" fill="#005281"/>
<path d="M53.4204 29.382C51.9513 29.382 50.7493 30.5839 50.7493 32.053V53.4217C50.7493 54.8908 51.9513 56.0928 53.4204 56.0928C54.8895 56.0928 56.0915 54.8908 56.0915 53.4217V32.053C56.0915 30.5839 54.8895 29.382 53.4204 29.382ZM67.1498 37.0213C66.6585 37.5125 66.3802 38.1774 66.3752 38.8722C66.3702 39.567 66.6389 40.2358 67.1231 40.7341C70.1414 43.9394 72.0112 48.2131 72.118 52.9409C72.3584 63.1712 63.8911 71.9857 53.6608 72.0926C51.1857 72.1312 48.7276 71.6767 46.43 70.7554C44.1323 69.8341 42.0411 68.4646 40.2783 66.7266C38.5155 64.9887 37.1164 62.9172 36.1626 60.6328C35.2088 58.3485 34.7194 55.8972 34.7229 53.4217C34.7229 48.5069 36.6193 44.0462 39.7178 40.7073C40.7061 39.6656 40.7061 38.0363 39.6911 37.0213C39.4401 36.7679 39.1406 36.5679 38.8105 36.4329C38.4804 36.298 38.1265 36.2311 37.7699 36.236C37.4133 36.241 37.0614 36.3179 36.7352 36.462C36.409 36.6061 36.1152 36.8144 35.8714 37.0747C31.8629 41.3206 29.5532 46.8906 29.3807 52.7272C29.0067 65.7621 39.6109 77.0341 52.6458 77.4347C66.2683 77.8621 77.4602 66.9374 77.4602 53.395C77.4602 47.0645 75.0028 41.3484 70.9962 37.0747C69.9811 35.9795 68.2182 35.9528 67.1498 37.0213Z" fill="white"/>
</svg>
